<svg xmlns="http://www.w3.org/2000/svg" viewBox="0 0 3840 2160">
  <title>us_layout</title>
  <g id="OR">
    <rect x="304.02" y="406.26" width="408.01" height="313.85"/>
  </g>
  <g id="WA">
    <rect x="304.02" y="155.18" width="408.01" height="251.08"/>
  </g>
  <g id="ID">
    <polygon points="712.03 155.18 774.8 155.18 931.73 312.11 931.72 406.26 994.5 469.03 994.49 720.11 712.03 720.11 712.03 155.18"/>
  </g>
  <g id="CA">
    <polygon points="304.02 720.11 555.11 720.11 555.11 939.81 900.34 1285.04 900.34 1410.58 712.03 1410.58 304.02 1002.58 304.02 720.11"/>
  </g>
  <g id="NV">
    <polygon points="900.34 1285.04 900.34 720.11 555.11 720.11 555.11 939.81 900.34 1285.04"/>
  </g>
  <g id="NM">
    <rect x="1182.8" y="1096.73" width="345.24" height="408.01"/>
  </g>
  <g id="AZ">
    <polygon points="900.34 1410.58 994.5 1504.74 1182.8 1504.74 1182.8 1096.73 900.34 1096.73 900.34 1410.58"/>
  </g>
  <g id="TX">
    <polygon points="1716.35 1316.43 1716.35 1159.5 1528.04 1159.5 1528.04 1504.74 1371.12 1504.74 1779.12 1912.74 1841.89 1912.74 1841.89 1818.59 1998.82 1661.66 1998.82 1316.43 1716.35 1316.43"/>
  </g>
  <g id="OK">
    <polygon points="1528.04 1159.5 1716.35 1159.5 1716.35 1316.43 1998.82 1316.43 1998.82 1096.73 1528.04 1096.73 1528.04 1159.5"/>
  </g>
  <g id="UT">
    <polygon points="1182.8 1096.73 900.34 1096.73 900.34 720.11 994.49 720.11 994.49 782.88 1182.8 782.88 1182.8 1096.73"/>
  </g>
  <g id="WY">
    <rect x="994.49" y="469.03" width="470.78" height="313.85"/>
  </g>
  <g id="CO">
    <rect x="1182.8" y="782.88" width="408.01" height="313.85"/>
  </g>
  <g id="MT">
    <polygon points="994.5 469.03 931.72 406.26 931.73 312.11 774.8 155.18 1465.27 155.18 1465.27 469.03 994.5 469.03"/>
  </g>
  <g id="KS">
    <polygon points="1998.82 1096.73 1590.81 1096.73 1590.81 845.65 1904.66 845.65 1998.82 939.81 1998.82 1096.73"/>
  </g>
  <g id="NE">
    <polygon points="1904.66 845.65 1590.81 845.65 1590.81 782.88 1465.27 782.88 1465.27 625.96 1904.66 625.96 1904.66 845.65"/>
  </g>
  <g id="SD">
    <rect x="1465.27" y="406.26" width="439.39" height="219.7"/>
  </g>
  <g id="ND">
    <rect x="1465.27" y="155.18" width="439.39" height="251.08"/>
  </g>
  <g id="MN">
    <polygon points="2249.9 155.18 2124.36 155.18 1904.66 155.18 1904.66 563.19 2058.1 563.19 2124.36 563.19 2249.9 563.19 2124.36 437.65 2124.36 312.11 2249.9 186.57 2249.9 155.18"/>
  </g>
  <g id="IA">
    <rect x="1904.66" y="563.19" width="345.24" height="188.31"/>
  </g>
  <g id="MO">
    <polygon points="2249.9 1159.5 1998.82 1159.5 1998.82 939.81 1904.66 845.65 1904.66 751.5 2249.9 751.5 2249.9 1159.5"/>
  </g>
  <g id="AR">
    <rect x="1998.82" y="1159.5" width="251.08" height="219.7"/>
  </g>
  <g id="LA">
    <polygon points="2312.67 1661.66 1998.82 1661.66 1998.82 1379.2 2249.9 1379.2 2249.9 1536.13 2312.67 1536.13 2312.67 1661.66"/>
  </g>
  <g id="MS">
    <polygon points="2406.82 1253.66 2406.82 1598.89 2312.67 1598.89 2312.67 1536.13 2249.9 1536.13 2249.9 1253.66 2406.82 1253.66"/>
  </g>
  <g id="TN">
    <polygon points="2249.9 1253.66 2626.52 1253.66 2752.06 1128.12 2249.9 1128.12 2249.9 1253.66"/>
  </g>
  <g id="AL">
    <polygon points="2406.82 1598.89 2469.59 1598.89 2469.59 1536.13 2595.13 1536.13 2595.13 1253.66 2406.82 1253.66 2406.82 1598.89"/>
  </g>
  <g id="FL">
    <polygon points="2814.83 2006.9 2846.21 2006.9 2846.21 1536.13 2469.59 1536.13 2469.59 1598.89 2626.52 1598.89 2720.67 1693.05 2720.67 1912.74 2814.83 2006.9"/>
  </g>
  <g id="GA">
    <polygon points="2846.21 1536.13 2846.21 1441.97 2657.9 1253.66 2595.13 1253.66 2595.13 1536.13 2846.21 1536.13"/>
  </g>
  <g id="SC">
    <polygon points="2657.9 1253.66 3034.52 1253.66 3003.14 1285.04 2846.21 1441.97 2657.9 1253.66"/>
  </g>
  <g id="VA">
    <polygon points="3160.06 1065.35 3003.14 908.42 2877.6 1033.96 2752.06 1033.96 2657.9 1128.12 3160.06 1128.12 3160.06 1065.35"/>
  </g>
  <g id="WV">
    <polygon points="2846.21 845.65 2846.21 877.04 3003.14 877.04 3003.14 908.42 2877.6 1033.96 2752.06 1033.96 2752.06 908.42 2783.44 908.42 2846.21 845.65"/>
  </g>
  <g id="KY">
    <polyline points="2249.9 1128.12 2249.9 1096.73 2438.21 908.42 2752.06 908.42 2752.06 1033.96 2657.9 1128.12 2249.9 1128.12"/>
  </g>
  <g id="IL">
    <polygon points="2438.21 657.34 2438.21 908.42 2249.9 1096.73 2249.9 657.34 2438.21 657.34"/>
  </g>
  <g id="WI">
    <polygon points="2124.36 312.11 2249.9 312.11 2438.21 500.42 2438.21 657.34 2249.9 657.34 2249.9 563.19 2124.36 437.65 2124.36 312.11"/>
  </g>
  <g id="MI">
    <g>
      <polygon points="2626.52 374.88 2626.52 312.11 2249.9 312.11 2438.21 500.42 2563.75 374.88 2626.52 374.88"/>
      <polygon points="2626.52 437.65 2532.36 531.8 2532.36 720.11 2689.29 720.11 2689.29 437.65 2626.52 437.65"/>
    </g>
  </g>
  <g id="IN">
    <rect x="2438.21" y="720.11" width="156.93" height="188.31"/>
  </g>
  <g id="OH">
    <polygon points="2595.13 908.42 2783.44 908.42 2846.21 845.65 2846.21 720.11 2595.13 720.11 2595.13 908.42"/>
  </g>
  <g id="NY">
    <polygon points="3097.29 469.03 2877.6 688.73 3191.45 688.73 3285.6 782.88 3316.99 782.88 3316.99 469.03 3097.29 469.03"/>
  </g>
  <g id="PA">
    <polygon points="2846.21 845.65 3191.45 845.65 3191.45 688.73 2877.6 688.73 2846.21 720.11 2846.21 845.65"/>
  </g>
  <g id="VT">
    <rect x="3316.99" y="469.03" width="94.16" height="156.93"/>
  </g>
  <g id="ME">
    <polygon points="3505.3 469.03 3599.45 374.88 3724.99 374.88 3724.99 406.26 3599.45 531.8 3505.3 625.96 3505.3 469.03"/>
  </g>
  <g id="NH">
    <rect x="3411.14" y="469.03" width="94.16" height="156.93"/>
  </g>
  <g id="MA">
    <rect x="3316.99" y="625.96" width="188.31" height="62.77"/>
  </g>
  <g id="CT">
    <rect x="3316.99" y="688.73" width="125.54" height="94.16"/>
  </g>
  <g id="RI">
    <polygon points="3442.53 782.88 3505.3 720.11 3505.3 688.73 3442.53 688.73 3442.53 782.88"/>
  </g>
  <g id="DE">
    <rect x="3128.68" y="845.65" width="62.77" height="125.54"/>
  </g>
  <g id="NJ">
    <polygon points="3191.45 971.19 3254.22 971.19 3316.99 908.42 3316.99 782.88 3285.6 782.88 3191.45 688.73 3191.45 971.19 3191.45 971.19"/>
  </g>
  <g id="MD">
    <polygon points="3003.14 877.04 3003.14 908.42 3160.06 1065.35 3254.22 971.19 3128.68 971.19 3128.68 845.65 2846.21 845.65 2846.21 877.04 2971.75 877.04 3003.14 877.04"/>
  </g>
  <g id="NC">
    <polygon points="2626.52 1253.66 3034.52 1253.66 3034.52 1253.66 3160.06 1128.12 2752.06 1128.12 2626.52 1253.66"/>
  </g>
  <g id="AK">
    <polygon points="586.29 1555.36 586.29 1902.91 766.34 2082.96 705.74 2082.96 541.45 1918.66 144.77 1918.66 144.77 1704.28 297.77 1551.27 586.29 1555.36"/>
  </g>
  <g id="HI">
    <g>
      <rect x="1255.47" y="1889.35" width="165.39" height="165.39"/>
      <polygon points="1189.71 1827.13 1271.19 1827.13 1196.73 1762.82 1131.3 1762.82 1189.71 1827.13"/>
      <rect x="992" y="1685.1" width="59.84" height="59.84"/>
      <rect x="804.59" y="1640.64" width="60.01" height="60.01"/>
    </g>
  </g>
</svg>
